<svg width="60" height="45" viewBox="0 0 60 45" fill="none" xmlns="http://www.w3.org/2000/svg">
<path d="M51.67 0H8.33004C3.72973 0 0 3.72973 0 8.33004V35.75C0 40.3504 3.72973 44.0801 8.33004 44.0801H51.67C56.2702 44.0801 60 40.3504 60 35.75V8.33004C60 3.72973 56.2702 0 51.67 0ZM20.8788 29.7416L9.21398 39.6932C8.39121 40.3954 7.1543 40.2977 6.45223 39.4741C5.75004 38.6514 5.84766 37.4145 6.67137 36.7124L18.3362 26.7608C19.1589 26.0586 20.3957 26.1562 21.0979 26.98C21.8 27.8026 21.7024 29.0395 20.8788 29.7416ZM30 25.9583C28.4398 25.9545 26.9273 25.436 25.7449 24.4134L25.7459 24.4144L25.7421 24.4116C25.743 24.4125 25.7441 24.4125 25.7449 24.4134L7.84711 8.87918C7.02914 8.16926 6.94207 6.93246 7.65094 6.11555C8.36074 5.29758 9.59766 5.21051 10.4145 5.91937L28.3173 21.4575C28.6999 21.798 29.3304 22.0439 30 22.04C30.6687 22.042 31.2885 21.8029 31.6922 21.4508L31.7009 21.4432L49.5854 5.91949C50.4023 5.21063 51.6393 5.29769 52.3491 6.11566C53.0578 6.93246 52.9709 8.16938 52.1529 8.8793L34.2502 24.4182C33.0716 25.4302 31.5612 25.9563 30 25.9583ZM53.5486 39.4741C52.8464 40.2977 51.6095 40.3954 50.787 39.6932L39.1221 29.7416C38.2985 29.0394 38.2009 27.8026 38.9031 26.98C39.6052 26.1562 40.8421 26.0587 41.6647 26.7608L53.3296 36.7124C54.1532 37.4145 54.2508 38.6514 53.5486 39.4741Z" fill="#212121"/>
</svg>
