<svg width="55" height="55" viewBox="0 0 55 55" fill="none" xmlns="http://www.w3.org/2000/svg">
<path d="M21.2539 10.375C20.1676 12.6235 19.2889 14.9666 18.6289 17.375H25.0039V5.75C23.45 7.01821 22.1735 8.5925 21.2539 10.375Z" fill="#212121"/>
<path d="M17.5039 27.375C17.5039 29 17.6289 30.75 17.7539 32.375H25.0039V22.375H17.7539C17.6289 24 17.5039 25.625 17.5039 27.375Z" fill="#212121"/>
<path d="M21.2539 44.375C22.1735 46.1575 23.45 47.7318 25.0039 49V37.375H18.6289C19.2889 39.7834 20.1676 42.1265 21.2539 44.375Z" fill="#212121"/>
<path d="M33.7539 44.375C34.8403 42.1265 35.7189 39.7834 36.3789 37.375H30.0039V49C31.5578 47.7318 32.8343 46.1575 33.7539 44.375Z" fill="#212121"/>
<path d="M33.7539 10.375C32.8343 8.5925 31.5578 7.01821 30.0039 5.75V17.375H36.3789C35.7189 14.9666 34.8403 12.6235 33.7539 10.375Z" fill="#212121"/>
<path d="M37.5039 27.375C37.5039 25.625 37.3789 24 37.2539 22.375H30.0039V32.375H37.2539C37.3789 30.75 37.5039 29 37.5039 27.375Z" fill="#212121"/>
<path d="M12.7526 22.375C12.6276 24 12.5026 25.625 12.5026 27.375C12.5026 29.125 12.6276 30.75 12.7526 32.375H0.502608C0.144433 30.7331 -0.0233406 29.0553 0.00260777 27.375C-0.0233406 25.6947 0.144433 24.0169 0.502608 22.375H12.7526Z" fill="#212121"/>
<path d="M25.0039 0V0.25C24.9069 0.25 24.8112 0.272591 24.7244 0.315983C24.6376 0.359375 24.5621 0.422378 24.5039 0.5H23.8789C22.6074 1.17582 21.4306 2.0164 20.3789 3L19.8789 3.5C18.8641 4.6461 17.9834 5.90424 17.2539 7.25C16.9991 7.59725 16.7891 7.97523 16.6289 8.375L15.5039 10.625C15.3916 11.0614 15.2235 11.4815 15.0039 11.875L14.6289 13.125L14.2539 14.25C14.0039 15.125 13.7539 16.25 13.5039 17.25H1.87891C2.50209 15.6498 3.25458 14.103 4.12891 12.625L4.62891 12C5.27091 11.0339 5.98104 10.1149 6.75391 9.25L7.37891 8.625C7.62891 8.375 7.75391 8.125 8.00391 8C8.64818 7.30594 9.36003 6.67784 10.1289 6.125C10.2291 5.903 10.4069 5.72521 10.6289 5.625L11.0039 5.375L11.8789 4.75L12.6289 4.25L13.6289 3.625L14.3789 3.125L15.3789 2.75L16.1289 2.375C18.6319 1.24977 21.2843 0.491945 24.0039 0.125H25.0039V0Z" fill="#212121"/>
<path d="M25.0039 54.5V54.75H24.0039C21.2779 54.3433 18.6253 53.5433 16.1289 52.375L15.3789 52L14.3789 51.5L13.6289 51.125L12.6289 50.5L11.8789 50L11.0039 49.375L10.6289 49C10.3789 49 10.2539 48.875 10.1289 48.625C9.36003 48.0722 8.64818 47.4441 8.00391 46.75C7.75391 46.625 7.62891 46.375 7.37891 46.125C7.12891 45.875 7.00391 45.625 6.75391 45.5C5.97615 44.595 5.26591 43.6341 4.62891 42.625C4.50673 42.348 4.33757 42.0943 4.12891 41.875C3.23096 40.4536 2.47722 38.9462 1.87891 37.375H13.5039L14.2539 40.375L14.6289 41.5L15.0039 42.75C15.2235 43.1435 15.3916 43.5636 15.5039 44L16.6289 46.25C16.7891 46.6498 16.9991 47.0278 17.2539 47.375C17.9834 48.7208 18.8641 49.9789 19.8789 51.125L20.3789 51.5C21.3652 52.5606 22.5557 53.411 23.8789 54L24.3789 54.25L25.0039 54.5Z" fill="#212121"/>
<path d="M53.1289 17.375H41.5039L40.7539 14.375L40.3789 13.25L40.0039 12C39.7843 11.6065 39.6162 11.1864 39.5039 10.75L38.3789 8.5C38.2187 8.10023 38.0087 7.72225 37.7539 7.375C37.0244 6.02923 36.1437 4.7711 35.1289 3.625L34.6289 3.125C33.5772 2.1414 32.4004 1.30082 31.1289 0.625H30.5039C30.4457 0.547377 30.3702 0.484375 30.2834 0.440983C30.1966 0.397591 30.1009 0.375 30.0039 0.375V0H31.0039C33.7299 0.40671 36.3826 1.20671 38.8789 2.375L39.6289 2.75L40.6289 3.125L41.3789 3.625L42.3789 4.25L43.1289 4.75L44.0039 5.375L44.3789 5.625C44.6009 5.72521 44.7787 5.903 44.8789 6.125C45.6478 6.67784 46.3596 7.30594 47.0039 8L47.6289 8.625C47.8789 8.875 48.0039 9.125 48.2539 9.25C49.0317 10.155 49.7419 11.1159 50.3789 12.125L50.8789 12.75C51.7532 14.228 52.5057 15.7748 53.1289 17.375Z" fill="#212121"/>
<path d="M53.1289 37.375C52.5306 38.9462 51.7768 40.4536 50.8789 41.875C50.6702 42.0943 50.5011 42.348 50.3789 42.625C49.7419 43.6341 49.0317 44.595 48.2539 45.5C48.0039 45.625 47.8789 45.875 47.6289 46.125L47.0039 46.75C46.3596 47.4441 45.6478 48.0722 44.8789 48.625C44.7539 48.875 44.6289 49 44.3789 49L44.0039 49.375L43.1289 50L42.3789 50.5L41.3789 51.125L40.6289 51.5L39.6289 52L38.8789 52.375C36.3759 53.5002 33.7235 54.2581 31.0039 54.625H30.0039V54.375L30.6289 54.125L31.1289 53.875C32.4521 53.286 33.6426 52.4356 34.6289 51.375L35.1289 51C36.1437 49.8539 37.0244 48.5958 37.7539 47.25C38.0087 46.9028 38.2187 46.5248 38.3789 46.125L39.5039 43.875C39.6162 43.4386 39.7843 43.0185 40.0039 42.625L40.3789 41.375L40.7539 40.25L41.5039 37.25L53.1289 37.375Z" fill="#212121"/>
<path d="M55.0039 27.375C55.0299 29.0553 54.8621 30.7331 54.5039 32.375H42.2539C42.3789 30.75 42.5039 29.125 42.5039 27.375C42.5039 25.625 42.3789 24 42.2539 22.375H54.5039C54.8621 24.0169 55.0299 25.6947 55.0039 27.375Z" fill="#212121"/>
</svg>
