<svg width="45" height="60" viewBox="0 0 45 60" fill="none" xmlns="http://www.w3.org/2000/svg">
<path d="M22.5 0C10.0734 0 0 10.0734 0 22.5C0 27.8231 2.34562 32.5041 4.94156 36.5625L20.97 59.2087C21.3216 59.7056 21.8925 60 22.5 60C23.1075 60 23.6784 59.7056 24.03 59.2087L40.0584 36.5625C42.5391 33.2231 45 27.8231 45 22.5C45 10.0734 34.9266 0 22.5 0ZM22.5 35.625C15.2513 35.625 9.375 29.7487 9.375 22.5C9.375 15.2513 15.2513 9.375 22.5 9.375C29.7487 9.375 35.625 15.2513 35.625 22.5C35.625 29.7487 29.7487 35.625 22.5 35.625Z" fill="#212121"/>
</svg>
